<?xml version="1.0" encoding="UTF-8" standalone="no"?>
<!-- Created with Inkscape (http://www.inkscape.org/) -->

<svg
   width="159.86363mm"
   height="104.29331mm"
   viewBox="0 0 159.86363 104.29331"
   version="1.1"
   id="svg1"
   xml:space="preserve"
   inkscape:version="1.3.2 (091e20e, 2023-11-25, custom)"
   sodipodi:docname="nuxt.svg"
   xmlns:inkscape="http://www.inkscape.org/namespaces/inkscape"
   xmlns:sodipodi="http://sodipodi.sourceforge.net/DTD/sodipodi-0.dtd"
   xmlns="http://www.w3.org/2000/svg"
   xmlns:svg="http://www.w3.org/2000/svg"><sodipodi:namedview
     id="namedview1"
     pagecolor="#ffffff"
     bordercolor="#000000"
     borderopacity="0"
     inkscape:showpageshadow="2"
     inkscape:pageopacity="0.0"
     inkscape:pagecheckerboard="true"
     inkscape:deskcolor="#d1d1d1"
     inkscape:document-units="mm"
     inkscape:zoom="0.72426347"
     inkscape:cx="306.51829"
     inkscape:cy="202.27446"
     inkscape:window-width="1920"
     inkscape:window-height="1009"
     inkscape:window-x="-8"
     inkscape:window-y="-8"
     inkscape:window-maximized="1"
     inkscape:current-layer="g1" /><defs
     id="defs1" /><g
     inkscape:label="Camada 1"
     inkscape:groupmode="layer"
     id="layer1"
     transform="translate(-23.842838,-95.080522)"><g
       id="g1"
       transform="translate(-0.73062484,-0.73062732)"><path
         style="fill:#d0d0d0;fill-opacity:1"
         d="m 44.39141,200.15998 c 5.285836,-0.0401 13.858336,-0.0401 19.05,5e-5 5.191664,0.0401 0.866889,0.0729 -9.610611,0.0729 -10.4775,-2e-5 -14.725225,-0.0328 -9.439389,-0.0729 z m 69.89665,-8e-5 c -3e-5,-0.17959 20.99561,-0.17817 49.21253,0.003 5.8936,0.0379 -2.7682,0.0973 -19.24843,0.13201 -16.48024,0.0347 -29.96408,-0.0262 -29.9641,-0.13534 z"
         id="path5" /><path
         style="fill:#b9b9b9;fill-opacity:1"
         d="m 87.036008,178.29803 c 0,-0.055 0.20836,-0.26331 0.463021,-0.46302 0.419644,-0.32911 0.429003,-0.31975 0.0999,0.0999 -0.345644,0.44073 -0.562916,0.58089 -0.562916,0.36313 z M 126.06205,115.1625 c 0.26339,-0.29104 0.53842,-0.52916 0.61118,-0.52916 0.0728,0 -0.0832,0.23812 -0.3466,0.52916 -0.26338,0.29105 -0.53842,0.52917 -0.61118,0.52917 -0.0728,0 0.0832,-0.23812 0.3466,-0.52917 z M 76.452675,99.452192 c 0,-0.05494 0.208359,-0.263302 0.463021,-0.463021 0.419644,-0.329108 0.429002,-0.319749 0.09989,0.0999 -0.345643,0.440729 -0.562915,0.580887 -0.562915,0.363126 z"
         id="path4" /><path
         style="fill:#a3a3a3;fill-opacity:1"
         d="m 124.03965,183.88631 c 0.11012,-0.11009 9.00411,-0.1696 19.76443,-0.13225 l 19.56422,0.0679 -19.76443,0.13225 c -10.87044,0.0727 -19.67434,0.0422 -19.56422,-0.0679 z m -71.447066,-0.13042 c 3.830128,-0.0413 10.021378,-0.0413 13.758334,8e-5 3.736956,0.0414 0.603215,0.0752 -6.963869,0.0752 -7.567083,-4e-5 -10.624593,-0.0339 -6.794465,-0.0752 z m 33.649674,-4.66411 c 0,-0.0549 0.20836,-0.26331 0.463021,-0.46302 0.419644,-0.32911 0.429003,-0.31975 0.09989,0.0999 -0.345644,0.44073 -0.562916,0.58089 -0.562916,0.36313 z m 1.5875,-1.5875 c 0,-0.0549 0.20836,-0.26331 0.463021,-0.46302 0.419644,-0.32911 0.429003,-0.31975 0.0999,0.0999 -0.345644,0.44073 -0.562916,0.58089 -0.562916,0.36313 z M 133.0239,112.07135 c 0.191,-0.0764 0.4192,-0.067 0.50712,0.0209 0.0879,0.0879 -0.0684,0.15046 -0.34727,0.13897 -0.30822,-0.0127 -0.37092,-0.0754 -0.15985,-0.15985 z m 1.32292,0 c 0.19099,-0.0764 0.4192,-0.067 0.50712,0.0209 0.0879,0.0879 -0.0684,0.15046 -0.34727,0.13897 -0.30822,-0.0127 -0.37092,-0.0754 -0.15985,-0.15985 z M 92.434828,98.692191 91.9308,98.096878 l 0.595313,0.504028 c 0.327422,0.277215 0.595312,0.545106 0.595312,0.595313 0,0.211733 -0.212935,0.05542 -0.686597,-0.504028 z"
         id="path3" /><path
         style="fill:#8c8c8c;fill-opacity:1"
         d="m 26.677258,196.19115 c -0.329108,-0.41964 -0.319749,-0.429 0.09989,-0.0999 0.254662,0.19971 0.463021,0.40807 0.463021,0.46302 0,0.21776 -0.217272,0.0776 -0.562915,-0.36313 z m 155.079582,0.36313 c 0,-0.055 0.20836,-0.26331 0.46303,-0.46302 0.41964,-0.32911 0.429,-0.31975 0.0999,0.0999 -0.34564,0.44073 -0.56292,0.58089 -0.56292,0.36313 z m -82.549998,-6.91157 c 0.790423,-0.80036 1.496668,-1.45521 1.569428,-1.45521 0.0728,0 -0.51442,0.65485 -1.304845,1.45521 -0.790422,0.80037 -1.496663,1.45521 -1.569423,1.45521 -0.07276,0 0.514418,-0.65484 1.30484,-1.45521 z m -74.856197,0.50712 c 0.0127,-0.30822 0.07539,-0.37092 0.159852,-0.15985 0.07643,0.19099 0.06703,0.4192 -0.02089,0.50712 -0.08792,0.0879 -0.150453,-0.0683 -0.138964,-0.34727 z m 160.072925,0 c 0.0127,-0.30822 0.0754,-0.37092 0.15985,-0.15985 0.0764,0.19099 0.067,0.4192 -0.0209,0.50712 -0.0879,0.0879 -0.15045,-0.0683 -0.13896,-0.34727 z M 24.350645,189.0915 c 0.0127,-0.30823 0.07539,-0.37092 0.159852,-0.15986 0.07643,0.191 0.06703,0.4192 -0.02089,0.50712 -0.08792,0.0879 -0.150453,-0.0684 -0.138964,-0.34726 z m 160.072925,0 c 0.0127,-0.30823 0.0754,-0.37092 0.15985,-0.15986 0.0764,0.191 0.067,0.4192 -0.0209,0.50712 -0.0879,0.0879 -0.15045,-0.0684 -0.13896,-0.34726 z m -82.83548,-2.06222 c 0,-0.0549 0.20836,-0.26331 0.46302,-0.46302 0.41965,-0.32911 0.42901,-0.31975 0.0999,0.0999 -0.34565,0.44073 -0.56292,0.58089 -0.56292,0.36313 z m -28.376561,-3.25034 c 0.181901,-0.0734 0.479557,-0.0734 0.661458,0 0.181901,0.0734 0.03307,0.13345 -0.330729,0.13345 -0.363802,0 -0.51263,-0.06 -0.330729,-0.13345 z M 84.075982,95.667179 c 0.190996,-0.07643 0.4192,-0.06703 0.507118,0.02089 0.08792,0.08792 -0.06835,0.150453 -0.347265,0.138965 -0.308225,-0.0127 -0.370919,-0.07539 -0.159853,-0.159853 z m 1.322917,0 c 0.190996,-0.07643 0.419199,-0.06703 0.507118,0.02089 0.08792,0.08792 -0.06835,0.150453 -0.347266,0.138965 -0.308224,-0.0127 -0.370919,-0.07539 -0.159852,-0.159853 z"
         id="path2" /><path
         style="fill:#000000;fill-opacity:1"
         d="m 32.791565,199.81946 c -3.631186,-0.86259 -6.874455,-3.77762 -7.819361,-7.02799 -0.56555,-1.94542 -0.524832,-4.74353 0.09246,-6.35357 0.55058,-1.43605 50.452253,-85.4157 51.628553,-86.885814 4.084422,-5.10464 12.742708,-4.959714 16.642801,0.278574 0.481825,0.64715 5.338647,8.67757 10.792922,17.84539 5.45429,9.16781 10.00378,16.69938 10.10999,16.73683 0.10621,0.0375 2.68678,-4.11273 5.73461,-9.22263 5.98884,-10.04072 6.36638,-10.52206 9.3958,-11.97885 1.59,-0.7646 1.92947,-0.82702 4.49792,-0.82702 2.57931,0 2.90664,0.0609 4.57397,0.85063 1.08598,0.51439 2.27568,1.35108 3.00973,2.11667 0.84187,0.87803 7.41879,11.6858 21.46003,35.26499 11.13537,18.69943 20.53206,34.68592 20.88154,35.52554 0.76473,1.83729 0.85768,4.49798 0.23228,6.64926 -0.77339,2.66037 -3.29681,5.31258 -6.23672,6.55501 l -1.4552,0.61498 -30.92404,0.0715 -30.92404,0.0715 0.38211,-0.60066 c 0.21016,-0.33036 2.38184,-3.96418 4.82595,-8.07514 l 4.44384,-7.47448 h 19.54965 c 10.75231,0 19.54965,-0.0948 19.54965,-0.21062 0,-0.33108 -29.09051,-49.12511 -29.33863,-49.2102 -0.12193,-0.0418 -6.50841,10.49522 -14.19217,23.41563 -7.68377,12.92041 -14.74176,24.60883 -15.68442,25.97428 -2.22344,3.22063 -6.329245,7.46806 -9.177596,9.49414 -5.057965,3.59781 -10.818611,5.68829 -17.661511,6.4092 -2.9783,0.31377 -43.066366,0.30732 -44.390114,-0.007 z M 78.43705,183.21215 c 4.721001,-1.28873 8.492785,-3.89986 11.452215,-7.92814 1.833672,-2.49594 14.656505,-24.10919 14.557905,-24.53776 -0.0445,-0.19352 -4.42673,-7.67613 -9.738245,-16.62803 -7.234392,-12.19268 -9.73117,-16.19744 -9.951757,-15.9623 -0.361335,0.38515 -38.655215,64.76222 -38.895578,65.3886 -0.160539,0.41836 0.838609,0.44123 15.143457,0.34667 14.754394,-0.0975 15.392861,-0.1224 17.432003,-0.67904 z"
         id="path1" /></g></g></svg>
